<svg xmlns="http://www.w3.org/2000/svg">
    <g fill="none" fillRule="evenodd">
        <path
        fill="#2C3444"
        d="M34 24.955C34 18.303 22 0 22 0S10 18.303 10 24.955C10 31.607 15.373 37 22 37c6.628 0 12-5.393 12-12.045z"
        />
        <path
        stroke="#FFF"
        strokeWidth="2"
        d="M17.356 18C16.006 20.851 15 23.542 15 25.206c0 4.245 2.978 7.807 7 8.794"
        />
        <path
        fill="#2C3444"
        d="M9 9.443C9 6.926 4.5 0 4.5 0S0 6.926 0 9.443C0 11.96 2.015 14 4.5 14S9 11.96 9 9.443z"
        />
    </g>
</svg>