<svg id="Layer_1" data-name="Layer 1" xmlns="http://www.w3.org/2000/svg" viewBox="0 0 580.99 95.99"><defs><style>.cls-1{fill:#003da6;}.cls-2{fill:#ce0e2d;}</style></defs><rect class="cls-1" x="351.84" width="1.32" height="95.99"/><path class="cls-2" d="M45.19.62H31.36V2h6.11V33.26c-2.32-3.81-2.25-3.6-8.14-12.35L15.21.62H0V2H6V45.45H0v1.39H13.83V45.45H7.71V3.32L37.47,46.84h1.68V2h6V.62Z"/><path class="cls-2" d="M140.69,29c0-4.78-.21-5.89-1.44-7.34-1.32-1.67-4.16-2.71-7.29-2.71-5.09,0-8.36,1.66-11,5.62V.62H109.55V2h4.88V45.45h-3.37a6.93,6.93,0,0,0,1.78-3.81h-1.45c-.51,2.57-1.74,3.74-3.78,3.74-2.62,0-3.5-1.17-3.5-4.71V21h7.28V19.6h-7.28V9H103c-2.18,5.4-5,8.59-9.82,11v.68a4.54,4.54,0,0,0-3.83-1.79c-3.41,0-5.89,2.28-7.93,7.27V19.6H70V21h4.87V45.45H70v1.39H86.17V45.45h-4.8V39c0-8,.73-12,2.92-15.53.65-1,1.45-1.73,2-1.73s.66.35.73,1c.14,2.57,1.16,3.75,3.2,3.75a3.42,3.42,0,0,0,3.63-3.54A4,4,0,0,0,93.32,21h4.25V38.52c0,4.3.14,5.06,1.46,6.52a7.71,7.71,0,0,0,6.18,2.49,9.14,9.14,0,0,0,4.34-.94v.25h15.79V45.45H121V35.4c0-5.12.29-7.48,1.16-9.56a8.25,8.25,0,0,1,7.43-4.93,4.75,4.75,0,0,1,3.7,1.39c.81,1.05.88,1.81.88,6.66V45.45h-4.37v1.39h15.79V45.45h-4.88V29Z"/><path class="cls-1" d="M163.63,2h8.44l-4.22,11.43L163.63,2Zm-4.22,34.38L147,2h8.51l8.37,22.24-4.51,12.14ZM193.24,2V.62H180.87V2h6.54L176.14,36.38,168.87,16.2,174.1,2h4.29V.62H134.88V2h4l16.59,45.53h1.67L164.78,27l7.65,20.58h1.67L189.38,2Z"/><path class="cls-1" d="M190,28c0-5.4,1.68-7.49,6-7.49,2.4,0,4.07,1,4.72,2.71.52,1.24.59,1.79.59,6.37H190V28Zm18.25,3c-.51-7.35-5.46-12.06-12.74-12.06s-13.67,6.66-13.67,14.35c0,7.41,6.61,14.27,13.82,14.27a12,12,0,0,0,12.08-9.84H206c-1.38,5.2-5,8.25-9.75,8.25a6.46,6.46,0,0,1-5.82-3c-.87-1.45-1-2.84-1-9.77V31Z"/><path class="cls-1" d="M219.72,45.94c-4.81,0-7.57-2.84-9.39-9.49h-1l.22,10.39h.8l1.75-2.22c2.76,2.15,4.8,2.91,7.64,2.91,5.46,0,9.32-4,9.32-9.49,0-5.13-2.77-7.62-9.83-8.8-5.61-1-7.13-1.8-7.13-3.95,0-2.7,2.76-4.79,6.33-4.79a8.11,8.11,0,0,1,8.22,6.86h1.09l-.22-8.17h-1.09l-1.16,2.28a10.89,10.89,0,0,0-7-2.63,8.4,8.4,0,0,0-8.66,8.52c0,5.34,2.55,7.63,9.9,8.81,5.17.76,6.84,1.87,6.84,4.43,0,3-2.84,5.34-6.62,5.34Z"/><path class="cls-1" d="M233.06,38.52c0,4.3.15,5.06,1.46,6.52a7.74,7.74,0,0,0,6.18,2.49c4.37,0,7-2,7.65-5.89h-1.46c-.51,2.57-1.75,3.74-3.78,3.74-2.63,0-3.5-1.17-3.5-4.71V21h7.28V19.6h-7.28V9h-1.16c-2.19,5.4-5,8.59-9.83,11v1h4.44V38.52Z"/><path class="cls-1" d="M254.68,28c0-5.4,1.67-7.49,6-7.49,2.4,0,4.08,1,4.74,2.71.5,1.24.57,1.79.57,6.37H254.68V28Zm5.65,19.54a12,12,0,0,0,12.07-9.84h-1.74c-1.39,5.2-5,8.25-9.75,8.25a6.45,6.45,0,0,1-5.82-3c-.88-1.45-1-2.84-1-9.77V31h18.84c-.51-7.35-5.46-12.06-12.73-12.06S246.5,25.57,246.5,33.26c0,7.41,6.62,14.27,13.83,14.27Z"/><path class="cls-1" d="M322.25,30.07c0-5.13-.36-6.72-2-8.45a11.74,11.74,0,0,0-16.59,1.59V19.6H292.76a5.12,5.12,0,0,0-2.65-.69c-3.42,0-5.9,2.28-7.93,7.27V19.6H270.75V21h4.88V45.45h-4.88v1.39H287V45.45h-4.81V39c0-8,.73-12,2.91-15.53.65-1,1.45-1.73,2-1.73s.65.35.73,1c.15,2.57,1.17,3.75,3.2,3.75a3.42,3.42,0,0,0,3.64-3.54,3.91,3.91,0,0,0-.5-1.94h3V45.45H292.2v1.39H308V45.45h-4.37V37.21c0-8.53.44-11.51,1.82-13.45A7.1,7.1,0,0,1,310.61,21a4.55,4.55,0,0,1,3.64,1.6c1.17,1.38,1.46,3.74,1.46,12.19V45.45h-4.44v1.39h15.79V45.45h-4.81V30.07Z"/><path class="cls-2" d="M294.7,77.11c-3.49,0-3.49-2.87-3.49-5.64,0-2.25,0-5.65,3.49-5.65s3.48,2.25,3.48,5.65c0,3,0,5.64-3.48,5.64Zm4.3,8c2.7,0,4,.9,4,2.75,0,4.37-4.45,7-8.75,7-1.52,0-6.48-.35-6.48-4.9,0-2.73,1.24-4.27,3.9-4.83ZM318.22,66.4h1.92c1.79,0,2.43.27,2.43,1a6.7,6.7,0,0,1-.56,2.09s-3.81,9.74-4,10.29c-.23-.55-5.47-13.07-5.62-13.4h3.11v-1H305.42v.71A2.24,2.24,0,0,0,303.23,65a4.73,4.73,0,0,0-3.4,1.8A7.27,7.27,0,0,0,294.7,65c-4.1,0-7.43,3.06-7.43,6.82,0,2.45,1.5,3.81,3.17,4.89-2.84.12-4.18,1.5-4.18,4.35,0,2.5,1.23,4,3.37,4.1-2,.93-4.21,2.74-4.21,5,0,4.18,4.45,5.67,8.61,5.67,5,0,10.29-2.88,10.29-9.19,0-3.31-1.73-5.07-5-5.07H289a1.68,1.68,0,0,1-1.81-1.64c0-1.66,1.41-2.52,4.18-2.58,0,0,.14.09.14.09a6.84,6.84,0,0,0,3.17.69c3.5,0,7.42-2.76,7.42-6.44a6.65,6.65,0,0,0-1.68-4.3,3.74,3.74,0,0,1,2-1.39,2,2,0,0,0-.28,1.22,1.51,1.51,0,0,0,1.53,1.45c1.15,0,1.88-.64,1.88-1.62a2.06,2.06,0,0,0-.09-.62h2.34c.06.15,8.05,18.68,8.09,18.75l-.2.88c-.48,2.18-1.75,7.92-3,7.92-.12,0-.23,0-.23-.31l0-.28,0-.42a1.89,1.89,0,0,0-2-1.82,2.14,2.14,0,0,0-2.23,2.26,2.32,2.32,0,0,0,2.54,2.42c3.15,0,4-2.84,5.71-9.83.15-.63,1.08-3.12,2.5-6.67L323,69.37l.06-.14c1-2.35,1.16-2.83,3.83-2.83H327v-1h-8.82v1Z"/><path class="cls-2" d="M261.12,70.92c0-3.57,1.11-5,3.95-5a3,3,0,0,1,3.13,1.8c.34.82.39,1.18.39,4.21h-7.47V70.92Zm10.58,6.42c-.91,3.44-3.32,5.45-6.46,5.45a4.27,4.27,0,0,1-3.85-2c-.58-1-.67-1.87-.67-6.46V72.89H273.2c-.34-4.86-3.62-8-8.43-8s-9.06,4.39-9.06,9.48c0,4.9,4.38,9.44,9.15,9.44a7.91,7.91,0,0,0,8-6.51Z"/><path class="cls-2" d="M287.58,67.65a2.74,2.74,0,0,0-3-2.66c-2.27,0-3.91,1.51-5.26,4.81V65.45h-7.57v.92H275V82.55h-3.23v.91h10.76v-.91h-3.19V78.29c0-5.32.49-7.93,1.93-10.27.43-.68,1-1.15,1.3-1.15s.44.24.49.64c.09,1.7.76,2.48,2.11,2.48a2.26,2.26,0,0,0,2.42-2.34Z"/><path class="cls-2" d="M254.31,72.37c0-3.38-.24-4.44-1.35-5.59a7.78,7.78,0,0,0-11,1V65.45h-7.57v.92h3.23V82.55h-3.23v.91h10.45v-.91H242V77.1c0-5.65.29-7.61,1.2-8.89a4.72,4.72,0,0,1,3.42-1.84,3,3,0,0,1,2.41,1c.77.92,1,2.48,1,8.08v7H247v.91h10.45v-.91h-3.18V72.37Z"/><path class="cls-2" d="M232.86,74.53c0,7.22-3.18,8-9.91,8h-5.59V68.39h3c4.36,0,4.68,2,4.68,5.14v.12h.91V61.92H225v.13c0,2.74-.36,5.4-4.64,5.4h-3V53.8h6.42c5,0,7.49,2.14,7.49,6.52v.13h.91l-.52-7.6H209.21v.95h3.67V82.55h-3.67v1h24.56V74.39h-.91v.14Z"/><path class="cls-2" d="M63.19,43c-1,2.08-3.13,3.12-6.19,3.12-2.77,0-4.51-.7-5.75-2.29S50,41.57,50,33.4c0-7.22.08-8.25.73-9.57,1-2.08,3.06-3.12,6.26-3.12,2.69,0,4.44.69,5.68,2.28s1.23,2.3,1.23,10.41c0,7.27-.07,8.31-.72,9.63ZM57,19.12A14.53,14.53,0,0,0,42.23,33.4a14.74,14.74,0,0,0,29.47,0A14.47,14.47,0,0,0,57,19.12Z"/><path class="cls-1" d="M321.08,14.17a3.34,3.34,0,1,1,3.35,3.35A3.34,3.34,0,0,1,321.08,14.17Zm6.15,0a2.82,2.82,0,1,0-5.63,0,2.82,2.82,0,1,0,5.63,0ZM326.09,16h-.54l-1.08-1.72h-.83V16h-.46V12.31h1.64c1,0,1.32.37,1.32,1s-.52,1-1.18,1ZM324.34,14c.53,0,1.3.09,1.3-.67,0-.58-.47-.65-.94-.65h-1.06V14Z"/><path class="cls-1" d="M403.82,10.85H377v27l9.23,9.08H413v-27Zm-3.33,28.49H384.6V18.4h15.66v3.87H389.2v4.49h10.15v3.58H389.2v5.12h11.29Zm9.41-9.7h-2.76v2.78h-2.21V29.64h-2.77v-2.2h2.77V24.67h2.21v2.77h2.76Z"/><path class="cls-1" d="M427.08,22.81h18v4.45H432.37v5.16h11.68v4.12H432.37v5.9h13V46.9H427.08Z"/><path class="cls-1" d="M449.47,32.66h-2.86V29.45h2.86V28.11c0-3.07,1.93-5.3,5.84-5.3.85,0,1.72.1,2.53.13v3.58a14.2,14.2,0,0,0-1.75-.1c-1.29,0-1.82.54-1.82,2v1h3.31v3.21h-3.31V46.9h-4.8Z"/><path class="cls-1" d="M462.12,32.66h-2.86V29.45h2.86V28.11c0-3.07,1.93-5.3,5.84-5.3.84,0,1.72.1,2.53.13v3.58a14.37,14.37,0,0,0-1.76-.1c-1.28,0-1.82.54-1.82,2v1h3.31v3.21h-3.31V46.9h-4.79Z"/><path class="cls-1" d="M477.23,26.75h-4.78V22.81h4.78Zm-4.78,2.7h4.78V46.9h-4.78Z"/><path class="cls-1" d="M491.54,35.6a3.27,3.27,0,0,0-3.54-3c-3.08,0-4.09,3.11-4.09,5.67s1,5.5,4,5.5c2.23,0,3.51-1.42,3.81-3.54h4.63c-.61,4.62-3.81,7.15-8.4,7.15-5.27,0-8.81-3.71-8.81-8.94C479.12,33,482.36,29,488,29c4.12,0,7.9,2.16,8.2,6.62Z"/><path class="cls-1" d="M504,26.75h-4.8V22.81H504Zm-4.8,2.7H504V46.9h-4.8Z"/><path class="cls-1" d="M511.67,39.34c.14,3,1.62,4.42,4.29,4.42a3.93,3.93,0,0,0,3.77-2.26H524c-1.35,4.12-4.22,5.87-8.16,5.87-5.5,0-8.91-3.78-8.91-9.18,0-5.22,3.61-9.21,8.91-9.21,5.94,0,8.8,5,8.46,10.36Zm7.79-3c-.44-2.44-1.48-3.72-3.81-3.72a3.77,3.77,0,0,0-4,3.72Z"/><path class="cls-1" d="M526.41,29.45H531v2.43h.1a6.22,6.22,0,0,1,5.32-2.9c5.1,0,6.38,2.87,6.38,7.19V46.9H538V37.05c0-2.87-.84-4.29-3.07-4.29-2.59,0-3.71,1.45-3.71,5V46.9h-4.79Z"/><path class="cls-1" d="M557.61,35.6a3.27,3.27,0,0,0-3.54-3c-3.07,0-4.08,3.11-4.08,5.67s1,5.5,4,5.5a3.69,3.69,0,0,0,3.81-3.54h4.62c-.6,4.62-3.81,7.15-8.4,7.15-5.26,0-8.81-3.71-8.81-8.94,0-5.43,3.25-9.45,8.91-9.45,4.12,0,7.89,2.16,8.2,6.62Z"/><path class="cls-1" d="M573.7,49.09c-1.05,2.8-2.7,3.95-6,3.95a29,29,0,0,1-2.94-.17V48.92a23.39,23.39,0,0,0,2.8.17c1.65-.17,2.19-1.89,1.65-3.27l-6.14-16.37h5.13l3.95,12h.06L576,29.45h5Z"/><path class="cls-1" d="M427.08,59.36H438c6,0,8.33,3.81,8.33,7.72S444,74.81,438,74.81h-5.58v8.64h-5.29Zm5.29,11.33h4.12c2.46,0,4.66-.53,4.66-3.61s-2.2-3.61-4.66-3.61h-4.12Z"/><path class="cls-1" d="M449.2,59.36H454V83.45h-4.8Z"/><path class="cls-1" d="M474.13,83.45h-4.55V81h-.1a6.22,6.22,0,0,1-5.33,2.89c-5.09,0-6.38-2.86-6.38-7.18V66h4.79v9.86c0,2.86.85,4.28,3.08,4.28,2.59,0,3.7-1.45,3.7-5V66h4.79Z"/><path class="cls-1" d="M481.48,77.78c0,2.09,1.79,2.94,3.68,2.94,1.38,0,3.14-.55,3.14-2.23,0-1.46-2-2-5.43-2.7-2.77-.61-5.54-1.59-5.54-4.66,0-4.45,3.85-5.6,7.59-5.6s7.33,1.29,7.7,5.57h-4.55c-.14-1.86-1.56-2.36-3.28-2.36-1.08,0-2.67.2-2.67,1.62,0,1.72,2.71,2,5.44,2.6s5.53,1.65,5.53,4.89c0,4.58-4,6.06-8,6.06s-8-1.51-8.2-6.13Z"/><rect class="cls-1" x="351.84" width="1.32" height="95.99"/></svg>